<?xml version="1.0" encoding="UTF-8"?>
<!DOCTYPE svg PUBLIC "-//W3C//DTD SVG 1.1//EN" "http://www.w3.org/Graphics/SVG/1.1/DTD/svg11.dtd">
<!-- Creator: CorelDRAW -->
<?xml-stylesheet href="Untitled-1.css" type="text/css"?>
<svg xmlns="http://www.w3.org/2000/svg" xml:space="preserve" width="210mm" height="297mm" version="1.1" style="shape-rendering:geometricPrecision; text-rendering:geometricPrecision; image-rendering:optimizeQuality; fill-rule:evenodd; clip-rule:evenodd"
viewBox="0 0 21000 29700" fill="white"
 xmlns:xlink="http://www.w3.org/1999/xlink"
 xmlns:xodm="http://www.corel.com/coreldraw/odm/2003">
 <g id="Layer_x0020_1">
  <metadata id="CorelCorpID_0Corel-Layer"/>
  <path class="fil0" d="M10734.75 13189.41l-4.59 836.05 -420.68 -11.47 -1.95 -809.26 427.22 -15.32zm-1413.18 17.15l389.28 -6.28 -1.53 778.21 -399.67 -7.66 11.92 -764.27zm2040.6 -7430.09c0.5,-171.2 -8.47,-177.81 103.57,-266.31l565.96 -483.24c134.84,27.98 1948.75,877.72 2184.02,981.05 237.89,104.47 482.9,228.46 710.58,334.78l5.82 8324.52 -1255.36 102.84 -5.58 -1581.31 -735.82 2.63 -12.18 1644.63 -1562.11 134.66 1.1 -9194.25zm-1648.79 5872.46l-1.31 768.47 -403.89 27.41 -4.57 -748.71 409.77 -47.17zm1015.52 -141.51l4.14 848.53 -425.16 19.17 6.12 -811.13 414.9 -56.57zm-273.32 -1071.6c-442.16,-108.73 -735.07,-345.96 -929.84,-638.03l231.48 153.24c204.43,134.78 571.71,284.54 818.1,311.28l-67.21 87.04c-29.2,38.9 -32.27,45.04 -52.53,86.47zm272.89 -2331.79l0.25 816.14 -422.75 114.22 2.3 -787.97 420.2 -142.39zm-1021.1 -1234.92l7 754.17c-114.96,83.22 -281.33,125.79 -408.86,184.53l-1.76 -751.58 403.62 -187.12zm1017.23 -454.87l10.57 833.22 -423.6 167.26 -12.8 -804.55 425.83 -195.93zm-2289.17 203.81c36.75,77.02 251.19,193.03 334.04,257.15 -11.54,1299.46 -53.54,638.83 303.86,1278.73 44.47,79.63 54.08,124.62 105.9,199.02 454.21,652.1 1099.12,1223.52 1892.53,1450.64l131.44 47.39c-787.08,145.1 -1320.21,-441.21 -1771.15,-909.15 -115.3,-119.63 -330.85,-358.98 -403.35,-502.56 -133.78,50.9 -244.26,176.93 -354.13,262.09 -700.07,542.7 -1807.53,1345.73 -2428.87,1866.53 55.58,108.41 223.27,331.82 347.46,582.68 369.16,745.55 611.29,1478.65 391.2,2341.77 170.33,-87.82 258.7,-288.44 367.34,-508.31l17.28 104.72c2.01,6.07 5.2,12.73 7.26,18.07l17.8 33.57c123.49,-131.64 245.43,-351.21 287.3,-614.64 61.54,-387.2 -31.64,-517.42 -84.97,-836.72 153.51,217.63 403.04,635.92 279.88,972.54 154.15,-65.67 198.31,-149.89 278.72,-295.7 106.16,-192.45 140.89,-376.75 177.73,-426.98 22.94,129.56 25.15,209.57 174.63,221.55 45.82,-67.04 16.41,-73.55 102.55,-202.95 144.4,-216.92 462,-349.1 520.06,-406.78 -45.19,-51.6 -150,-136.15 -205.58,-182.9 -292.56,-246.07 -344.72,-359.53 -562.78,-632.47 34.39,19.66 289.73,233.03 460.76,336.8 131.14,79.55 383.48,198.8 577.53,223.92 -37.37,-86.42 -41.67,-38.66 -97.84,-121.93 243.27,-83.48 553.17,-387.73 627.16,-425.09 66.41,-33.52 203.93,-8.74 274.31,26.42 -30.83,32.69 -49.48,41.96 -84.43,72.95l-800.85 719c-63.41,60.33 -104.78,118.38 -170.99,178.63 -64.14,58.35 -309.56,280.68 -345.83,333.6 -103.99,151.74 28.45,2277.98 -43.66,2687.12 -264.69,29.78 -532.33,64.97 -793.37,97.84 -127.44,16.06 -246.01,45.35 -367.24,76.43 -60.93,15.62 -116.68,33.08 -183.68,49.23l-127.22 39.43c-43.13,20.03 -30.03,14.46 -50.2,28.08 1288.37,211.44 2626.43,344.76 3926.07,549.88 234.41,37 372.09,3.31 603.56,-24.88 1531.13,-186.55 3055.39,-373.66 4575.7,-578.1 -246.7,-119.61 -800.66,-224.58 -1130.03,-251.76l2.1 -8192.46c75.63,-22.81 198.26,-71.52 258.33,-129.41 0.21,-127.74 -125.06,-172.85 -362.48,-360.11l-2037.11 -1586.48c-194.92,-153.56 -317.88,-288.6 -464.32,-246.15l-510.72 217.98c-384.15,169.24 -1774.55,720.05 -2041.89,856.7 -175.42,89.68 -1001.69,777.2 -1221.03,953.19 -122.05,97.95 -362.71,253.62 -398.78,351.88z"/>
  <path class="fil0" d="M3491.89 4089.89c325.1,-76.15 553.53,441.42 261.53,534.19 -343.45,109.14 -608.63,-452.88 -261.53,-534.19zm1508.81 4920.44c118.56,-36.3 269.77,-170.85 368.64,-246.6 241.71,-185.17 2425.07,-1838.53 2474.92,-1912.85 -275.63,-626.9 -825.34,229.25 -1681.53,-228.08 -709.96,-379.2 -932.91,-1217.81 -1393.78,-1993.95 -293.07,-493.56 -590.6,-877.34 -1055.12,-1189.84 -182.19,-122.57 -605.97,-298.74 -862.11,-138.58 -254.3,158.99 -257.61,535.96 -164.85,861.47 163.79,574.84 746.57,1246.85 1174.41,1632.43 104.93,94.59 194.89,189.2 302.32,281.65 57.21,49.23 101.6,81.95 147.09,133.93l430.71 409.97c536.44,563.13 600.34,1135.63 230.45,1816.51 -106.85,196.71 -279.91,271.53 28.85,573.94z"/>
  <path class="fil0" d="M5129.9 9179.2l342.12 450.58c69.8,95.77 295.59,392.52 370.26,448.79 109.24,-58.96 242.89,-178.18 352.21,-256.47l2480.95 -1889.2c-23.79,-89.92 -573.65,-824.5 -705.8,-934.68 -80.88,36.88 -102.57,69.23 -174.18,122.95l-1618.93 1233.62c-111.34,90.52 -230.7,189.24 -354.76,276.64l-691.87 547.77z"/>
  <path class="fil0" d="M15060.69 19202.24c-19.03,-486.96 27.64,-997.36 -25.63,-1479.92 53.43,39.43 835.56,1306.11 935.61,1470.3l436.59 0.53 -2.02 -2262.39 -445.78 1.94 28.83 1498.79c-80.31,-66.63 -192.36,-274.55 -256.89,-381.38 -74.93,-123.99 -161.93,-248.44 -235.38,-371.97 -145.05,-243.91 -310.84,-517.95 -464.99,-749.89l-413.27 11.43 -8.21 2258.27 451.14 4.29z"/>
  <path class="fil0" d="M9117.9 22446.48c-7.23,-490.66 -15.83,-981.45 -24.6,-1468.16l705.11 1110.94c63.59,105.42 171.04,250.92 213.39,356.22l451.07 1.61 2.83 -2238.69 -446.31 -1.97 5 1162.89c1.63,72.15 33.45,263.87 -0.71,323.45l-466.33 -741.17c-97.73,-145.65 -397.27,-660.02 -478.15,-740.21l-414.42 12.4 -1.94 2219.62 455.06 3.07z"/>
  <path class="fil0" d="M14436.47 22448.4c-19,-502.2 -2.46,-968.79 -35.47,-1478.29l937.86 1470.21 428.57 -8.12c18.89,-648.48 -2.14,-1549.45 -4.93,-2224.62l-426.56 -1.79c-14.68,451.7 3.06,1029.06 15.45,1484.37l-946.21 -1476.68 -422.39 -0.19 -3.55 2230.47 457.23 4.64z"/>
  <path class="fil0" d="M6515.01 17323.14c330.4,1.8 695.11,-62.52 701.94,329.29 6.82,391.73 -368.87,321.79 -700.47,324.01l-1.47 -653.3zm986.18 795.99c258.71,-258.75 207.63,-697.66 5.44,-937.65 -268.81,-319.08 -911.08,-269.93 -1428.18,-246.8l-3.38 2262.74 442.55 -1.84 5.76 -832.58 274.59 -3.44 411.99 837.7 512.8 0.9c-121.16,-297.62 -345.8,-587.47 -455.14,-891.34l233.57 -187.69z"/>
  <polygon class="fil0" points="4281.58,18237.8 5184.79,18238.53 5178.99,19197.71 5622.55,19199.02 5626.47,16935.59 5184.13,16929.05 5184.48,17836.52 4290.32,17825.07 4296.63,16940.11 3839.67,16937.24 3833.96,19201.07 4286.96,19200.01 "/>
  <path class="fil0" d="M17704.85 21606.33c12.25,652.65 -950.18,732.91 -1011.93,-167.99 -45.83,-668.77 310.76,-987.36 720.09,-838.66 172.01,62.49 160.97,121.65 258.26,286.13l443.96 1.88c-78.5,-282.68 -195.18,-478.7 -412.95,-602.21 -634.73,-359.94 -1668.06,76.41 -1444.43,1327.18 100.55,562.37 463.87,954.17 1131.52,876.62 315.39,-36.62 488.74,-201.86 604.84,-401.79 150.74,-259.56 153.56,-523.5 142.93,-856.97l-896.51 -2.55 -1.13 378.98 465.35 -0.62z"/>
  <path class="fil0" d="M13286.9 17549.98l259.27 776.52 -560.46 2.87 301.19 -779.39zm-407.98 1170.17l796.81 -5.22 157.13 483.27 470.37 -4.34 -783.95 -2245.58 -476.72 0.55 -43.84 76.89c-9.62,22.07 -17.05,46.78 -24.58,68.11l-726.87 2102.74 469.94 0.2 161.71 -476.62z"/>
  <path class="fil0" d="M6048.86 21600.27c33.62,-130.98 90.29,-276.37 136.57,-403.2l145.4 -373.22 257.48 777.32 -539.45 -0.9zm-260.9 837.18c22.44,-79.86 107.61,-414.2 162.32,-441.12l751.38 -9.38c48.56,78.56 133.28,349.38 158.95,459.95l477.12 -1.63c-72.43,-287 -744.46,-2151.43 -794.12,-2222.4l-444.16 -1.11c-47.98,59.47 -84.3,193.97 -110.08,266.51 -156.2,439.65 -595.46,1666.52 -668.5,1953.93l467.09 -4.75z"/>
  <path class="fil0" d="M8862.7 18537.06c59.84,283.69 73.37,389.49 263.81,531.51 484.08,360.97 1573.26,167.8 1380.36,-681.21 -106.66,-469.43 -722.01,-502.1 -975.88,-615 -220.26,-97.93 -247.27,-388.18 13.03,-461.69 122.26,-34.54 253.91,-27.68 349.64,31.35 111.3,68.65 90.89,106.22 156.68,219.08l400.9 -5.31c4.5,-476.36 -433.54,-705.23 -935.16,-647.72 -572.92,65.7 -697.91,641.81 -532.27,946.4 236.53,434.99 834.42,349.74 1025.67,563.82 344.21,385.31 -641.62,686.09 -694.79,103.59l-451.99 15.18z"/>
  <path class="fil0" d="M18594.99 18529.34c-58.08,789.06 1101.21,858.02 1460.88,501.59 137.49,-136.22 229.66,-341.6 185.58,-604.45 -83.1,-495.5 -692.14,-537.73 -969.19,-646.85 -227.95,-89.79 -253.58,-368.99 -16.22,-459.02 261.21,-99.07 473.9,16.4 511.93,243.48l407.16 -9.63c31.82,-463.14 -436.77,-709.6 -931.8,-643.78 -620.6,82.54 -677.31,675.94 -533.07,941.69 237.38,437.41 842.43,352.88 1031.38,558.06 259.75,282.05 -254.49,575.53 -572.89,362.38 -110.32,-73.84 -94,-123.97 -148.62,-242.9l-425.14 -0.57z"/>
  <path class="fil0" d="M3083.73 18491.69c-83.48,115.39 -111.13,221.96 -246.72,291.83 -347.2,178.91 -788.93,-37.46 -780.54,-757.9 4.09,-351.19 117.67,-607.36 380.96,-692.67 332.1,-107.6 585.24,80.1 629.55,344.92l444.31 2.39c-54.87,-555.12 -510.63,-861.47 -1130.75,-754.37 -1097.22,189.5 -1004.88,2139.54 3.35,2292.52 643.71,97.68 1022.41,-209.25 1134.41,-728.92l-434.57 2.2z"/>
  <path class="fil0" d="M4132.42 20594.2c346.98,13.31 674.51,-42.27 679.82,354.62 5.45,407.61 -351.48,340.77 -680.51,349.99l0.69 -704.61zm-3.58 1080.68c345.33,8.07 655.04,35.47 891.39,-168.5 102.26,-88.26 156.97,-146.03 205.28,-311.44 117.23,-401.51 -50.48,-862.85 -539.16,-960.98 -172.69,-34.66 -820.41,-53.66 -984.01,-23.08l-5.52 2234.39 431.55 -5.18 0.47 -765.21z"/>
  <polygon class="fil0" points="11749.69,17340.93 12337.39,17329.97 12326.18,16941.29 10691.91,16937.59 10717.41,17334.33 11301.95,17331.41 11299.59,19194.65 11741.87,19198.97 "/>
  <path class="fil0" d="M11463.31 20610.37l-6.93 1832.57 442.51 2.05c-1.17,-448.81 -3.22,-1238.7 -4.8,-1848.03 149.24,0.53 428.4,4.2 592.77,2.12l-8.35 -395.66c-413.43,1.14 -1246.15,-4.77 -1618.48,-0.24l-3.8 394.54 607.08 12.65z"/>
  <path class="fil0" d="M5958.17 10207.83c31.62,94.44 99.95,172.58 164.64,218.96l707.66 -528.94c242.77,-185.54 470.72,-347.72 704.81,-534.7 188.5,-150.56 1284.61,-968.04 1394.78,-1085.28 -39.59,-104.22 -69.71,-154.61 -142.21,-213.88 -121.91,63.05 -237.83,165.84 -353.85,256.91l-1765.53 1344.11c-117.59,88 -238.57,184.07 -359.21,272.29 -132.06,96.58 -233.52,190.47 -351.09,270.53z"/>
  <polygon class="fil0" points="8078.88,19197.51 8521.31,19199.46 8526.7,16943.23 8081.17,16942.23 "/>
  <polygon class="fil0" points="16882.26,19195.75 17322.06,19198.03 17322.91,16941.92 16884.2,16953.24 "/>
  <polygon class="fil0" points="7690.83,22439.27 8123.77,22443.51 8124.71,20222.71 7686.01,20221.48 "/>
  <polygon class="fil0" points="12946.89,22445.04 13382.65,22434.47 13382.3,20226.07 12947.03,20221.66 12947.36,22374.53 "/>
  <polygon class="fil0" points="12059.25,7132.8 12578.74,7285.4 12579.52,6267.39 12069.76,6068.83 "/>
  <path class="fil0" d="M12061.98 12438.83l511.15 18.32c10.91,-160.77 24.7,-890.78 -11.63,-1008.64l-502.34 -46.75 2.82 1037.07z"/>
  <polygon class="fil0" points="12063.04,10664.81 12578.35,10732.53 12577.71,9719.68 12060.06,9627.8 "/>
  <polygon class="fil0" points="12063.02,8892.99 12574.89,9000.94 12578.3,7993.24 12063.98,7856.38 "/>
  <path class="fil0" d="M13110.27 7412.89c60.51,108.94 346.32,135.48 459.45,175.42l10.42 -979.33 -461.4 -168.64 -8.47 972.55z"/>
  <polygon class="fil0" points="13110.02,9121.15 13576.54,9216.62 13572.11,8259.38 13109.37,8124.1 "/>
  <path class="fil0" d="M13108.71 10798.04l464.04 51.8 0.41 -935.56c-4.4,-3.62 -14.04,-15.56 -17.89,-9.69l-79.28 -28.53c-28.83,-7.14 -86.73,-14.18 -120.39,-20.1 -82.28,-14.47 -163.78,-31.93 -248.84,-46.49l1.95 988.57z"/>
  <polygon class="fil0" points="14027.34,7736.59 14464.64,7866.54 14461.4,6944.77 14025.97,6775.8 "/>
  <polygon class="fil0" points="14028.44,9319.75 14467.05,9412.47 14460.88,8509.58 14025.07,8386.03 "/>
  <path class="fil0" d="M13143.51 12443.5c112.11,-1.18 282.29,13.34 402.22,18.24 -1.51,-280.59 -9.99,-718.8 -23.47,-911.16l-391.21 -26.53 12.46 919.45z"/>
  <path class="fil0" d="M18038.52 17762.33c95.25,-279.86 232.82,-561.58 312.23,-818.91l-398.89 -0.33c-79.21,112.27 -258.82,648.18 -247.99,815.01l334.65 4.23z"/>
  <path class="fil0" d="M14047.92 10895.39c123.97,12.61 267.24,11.86 384.64,29.5l-7.2 -860.5 -378.86 -68.23c-0.67,159.53 -26.59,740.39 1.42,899.23z"/>
  <path class="fil0" d="M14063.91 11580.96l0.6 886.65 367.02 15.1c13.91,-167.88 16.04,-685.61 11.84,-860.98l-379.46 -40.77z"/>
 </g>
</svg>
